# xmcd
#
# Track frame offsets: 
#        150
#        16025
#        30210
#        47468
#        60663
#        81183
#        95913
#        113253
#        126113
#        139533
#        153278
#
# Disc length: 2238 seconds
#
# Revision: 7
# Processed by: cddbd v1.5.2PL0 Copyright (c) Steve Scherf et al.
# Submitted via: ExactAudioCopy v1.3
#
DISCID=7508bc0b
DTITLE=Dwight Yoakam - Buenas Noches From A Lonely Room
DYEAR=1988
DGENRE=Country
TTITLE0=I Got You
TTITLE1=One More Name
TTITLE2=What I Don't Know
TTITLE3=Home Of The Blues
TTITLE4=Buenas Noches From A Lonely Room (She Wore Red Dresses)
TTITLE5=I Hear You Knockin'
TTITLE6=I Sang Dixie
TTITLE7=Streets Of Bakersfield
TTITLE8=Floyd County
TTITLE9=Send Me The Pillow
TTITLE10=Hold On To God
EXTD=(p)(c)1988 Reprise Records - WEA\nupc 075992574921\nKatalog: 925 
EXTD=749-2\n\nProduced by Pete Anderson\n\nCD klingt fast so gut wie d
EXTD=ie LP.
EXTT0=
EXTT1=
EXTT2=
EXTT3=
EXTT4=
EXTT5=
EXTT6=
EXTT7=
EXTT8=
EXTT9=
EXTT10=
PLAYORDER=
